<svg width="76" height="48" viewBox="0 0 76 48" fill="none" xmlns="http://www.w3.org/2000/svg">
<path d="M29.105 27.1996C29.1521 26.7943 29.3399 26.6934 29.6448 26.617C30.3723 26.4907 31.0754 26.3634 31.803 26.2371C34.5237 25.7817 37.2671 25.3764 39.9642 24.8447C41.6525 24.5156 43.2238 23.8576 44.5139 22.5406C45.9908 21.0218 46.3201 18.9968 45.4048 17.0217C44.865 15.8574 44.0911 14.8703 43.1068 14.1105C41.1372 12.5408 38.8384 11.9336 36.4697 11.68C33.3271 11.351 30.2081 11.6546 27.0883 12.1099C25.5641 12.3381 24.04 12.5907 22.4914 12.8189C22.4443 12.6926 22.4216 12.5907 22.3971 12.4644C22.0224 9.95857 21.694 7.45179 21.2957 4.94595C21.0372 3.42717 20.6625 1.9084 20.3577 0.389622C20.2869 0.0606013 20.1708 -0.116636 19.8415 0.0860556C19.4659 0.314202 19.2083 0.972244 19.3017 1.42759C19.7943 3.95889 20.3096 6.51564 20.756 9.04693C20.99 10.3376 21.1307 11.6546 21.2957 12.9961C21.0372 13.0715 20.8258 13.1225 20.638 13.1479C17.8946 13.755 15.1739 14.2613 12.4532 14.9448C8.60668 15.9319 4.90076 17.3498 1.45337 19.5266C0.867306 19.8811 0.30395 20.2355 0 20.919V21.5016C0.23495 21.4507 0.492609 21.4507 0.680394 21.3499C3.58888 19.4003 6.73058 18.0842 10.0382 17.1725C12.8052 16.4127 15.6194 15.8055 18.4108 15.122C19.396 14.8939 20.404 14.7167 21.3656 14.5149C21.7176 15.7556 22.3037 25.8053 22.1395 27.5013C20.2634 27.8813 18.3864 28.2857 16.4876 28.6402C15.8543 28.7411 15.5023 29.0955 15.3145 29.7036C15.2202 30.0835 15.2674 30.3362 15.7128 30.2099C16.9085 29.9318 18.1287 29.7036 19.3244 29.4C20.2625 29.1719 21.2005 28.8938 22.1857 28.6402C22.2093 28.792 22.2329 28.8928 22.2329 28.9947C22.1857 33.3483 22.1386 37.7029 22.0923 42.082C22.0687 43.6262 21.9753 45.1959 21.9517 46.7401C21.9517 46.8919 22.046 47.0437 22.0923 47.1955C22.2329 47.1445 22.4443 47.1191 22.4906 46.9928C22.7019 46.6383 22.9832 46.2329 23.0068 45.8539C23.1238 41.6012 23.2173 37.3484 23.288 33.1211C23.3116 31.6777 23.3116 30.2608 23.288 28.8429C23.2644 28.412 23.4286 28.2602 23.757 28.1594C24.4374 27.9821 25.1178 27.7794 25.7746 27.6022C26.4786 27.3995 27.1817 27.2223 27.932 27.045C27.932 27.2477 27.9556 27.3741 27.9556 27.5004C27.7922 29.5763 27.6272 31.6523 27.4158 33.7028C27.2053 35.8796 26.8996 38.0564 26.7354 40.2342C26.6184 41.9811 26.6646 43.7525 27.2979 45.3986C28.0254 47.2718 28.939 47.5499 30.2527 46.1075C31.3313 44.9178 32.2703 43.5508 33.2074 42.1838C33.8171 41.323 34.2861 40.336 34.8486 39.4243C34.9892 39.1962 35.2242 38.9935 35.4119 38.7918C35.5526 39.0699 35.7168 39.3489 35.8102 39.627C35.8801 39.8552 35.9046 40.1078 35.9273 40.3614C36.0679 41.8293 36.6312 43.07 37.4758 44.2088C38.1562 45.095 39 45.4749 39.9389 45.2468C40.0323 45.2213 40.1494 45.1704 40.2437 45.1459C40.5721 45.0441 40.9241 44.8678 41.2289 44.7151C41.5809 44.5378 41.932 44.3097 42.2141 44.0061C42.5426 43.6771 42.8002 43.2972 43.0815 42.9427C43.105 42.8918 43.2692 42.7655 43.2692 42.7145C43.7854 42.082 43.9025 41.8793 44.1138 41.4739H44.0431C43.9261 41.3721 43.8081 41.2966 43.6911 41.2203C43.6439 41.1694 43.6212 41.094 43.5741 41.043C43.4334 41.2712 43.2692 41.4984 43.1277 41.7011C42.8701 42.0556 42.5417 42.3846 42.2369 42.6627C42.0255 42.8908 41.7678 43.0681 41.5093 43.2698C41.4621 43.2953 41.4386 43.3207 41.3923 43.3462C40.29 44.0551 39.117 44.1306 38.1562 42.6627C38.0392 42.46 37.8977 42.2573 37.8042 42.0301C37.0776 40.5368 36.7963 38.8907 36.5614 37.2202C36.5142 36.9666 36.398 36.7139 36.3037 36.4358C36.0688 36.613 35.8111 36.7648 35.5997 36.9421C35.4355 37.0938 35.3185 37.2965 35.2015 37.4992C34.5211 38.5118 33.8878 39.5497 33.1611 40.5368C32.1759 41.8029 31.2152 43.0681 30.112 44.2324C29.2447 45.144 28.5408 44.8395 28.2132 43.5743C28.1896 43.4735 28.1661 43.3971 28.1425 43.2962C27.6263 40.8913 27.7669 38.4863 28.0717 36.0813C28.4237 33.1192 28.7757 30.158 29.1032 27.1959L29.105 27.1996ZM27.8149 26.0863C26.3616 26.4407 24.93 26.7952 23.4767 27.1242C23.4295 27.1497 23.3823 27.1242 23.336 27.1242C23.1247 22.846 22.8906 18.5678 22.6792 14.2142C24.1335 14.0115 25.634 13.7588 27.159 13.5816C29.6683 13.278 32.2013 13.2016 34.7342 13.4043C37.2435 13.5816 39.7293 13.9361 41.9102 15.4548C42.9426 16.1638 43.8099 17.05 44.4431 18.1634C45.3104 19.5813 45.0999 20.7965 43.8099 21.809C42.802 22.5934 41.6525 23.0496 40.4332 23.3278C38.0174 23.8849 35.5788 24.3403 33.1629 24.872C32.0371 25.1246 30.8876 25.3782 29.7627 25.6318C29.622 25.6828 29.4578 25.7073 29.2002 25.7582C29.388 23.3023 29.5522 20.9483 29.74 18.5942C29.2002 18.5942 28.7783 19.025 28.6849 19.733C28.5442 20.9483 28.4263 22.138 28.2866 23.3532C28.2158 24.1131 28.1923 24.872 28.0988 25.6318C28.0752 25.8091 27.9346 26.0617 27.8167 26.0872L27.8149 26.0863Z" fill="#FAFAFA"/>
<path d="M49.5483 43.3712C49.6164 43.2845 49.688 43.2015 49.7666 43.1233C49.8007 43.0893 49.8365 43.0554 49.8583 43.0111C49.9142 42.8923 49.8644 42.6943 49.8566 42.5661C49.8461 42.3917 49.8243 42.2145 49.8243 42.04C49.8243 42.0683 49.7395 42.1485 49.7212 42.172C49.681 42.2239 49.64 42.2757 49.5998 42.3285C49.3081 42.7028 48.9858 43.0497 48.6521 43.3806C48.3272 43.704 47.9962 44.0283 47.6346 44.3027C47.5936 44.3338 47.5525 44.3639 47.5106 44.3941C47.1595 44.6439 46.7926 44.8768 46.3577 45.1144C45.9227 45.3519 45.0781 45.5292 44.7375 45.0437C44.3968 44.5591 44.4012 44.4893 44.2807 43.8605C44.1304 43.079 44.1558 42.2767 44.1741 41.4838C44.1916 40.7145 44.2422 39.9471 44.3418 39.1854C44.4379 38.45 44.5785 37.7204 44.7794 37.0105C44.8344 36.8153 44.9314 36.4731 44.8117 36.2855C44.7401 36.1742 44.5846 36.1526 44.4702 36.1507C44.2414 36.1469 43.8378 36.2289 43.7252 36.4806C43.5837 36.7955 43.5409 37.1717 43.4684 37.5111C43.1347 39.0647 43.0771 40.6448 43.0823 42.2343C43.0832 42.6161 43.0823 42.9979 43.1068 43.3788C43.119 43.573 43.1365 43.7681 43.1592 43.9614C43.1793 44.1311 43.1994 44.2989 43.2396 44.4903C43.3819 45.2332 44.1226 46.1373 44.506 46.4889C44.8894 46.8406 45.0405 46.8028 45.2991 46.8151C45.9742 46.8462 46.597 46.4201 47.1036 45.9826C47.5796 45.5707 47.9901 45.0851 48.4355 44.6392C48.6775 44.3979 48.9089 44.149 49.1386 43.8935C49.2862 43.7295 49.412 43.5447 49.5491 43.3712H49.5483Z" fill="#FAFAFA"/>
<path d="M49.8863 44.2009C49.8758 44.0199 49.8688 43.8389 49.8609 43.6579C49.7675 41.6385 49.5823 39.6116 49.812 37.5941C49.8504 37.2547 49.8985 36.9162 49.9535 36.5797C49.9989 36.3044 50.1107 35.982 50.1107 35.7029C50.1526 35.3145 50.0924 35.2787 50.2828 35.0354C50.4732 34.7913 50.8924 34.1766 51.0994 34.8874C51.3064 35.5992 50.9326 36.903 50.8296 37.7128C50.7265 38.5217 50.6793 39.4456 50.695 40.2055C50.7099 40.9653 50.6828 41.6498 50.7221 42.3389C50.7474 42.7981 50.7378 43.2581 50.7553 43.7172C50.7693 44.1009 50.8269 44.4809 50.8383 44.8646C50.8488 45.2011 50.875 45.4189 51.123 45.6546C51.558 46.0694 51.9833 45.7263 52.2943 45.0842C52.6061 44.4432 53.1791 43.5221 53.552 42.7849C54.3363 41.2378 55.3023 39.39 56.0491 37.908C56.291 37.4281 56.5583 36.9624 56.8439 36.5108C56.9548 36.3364 57.0632 36.1601 57.1837 35.9933C57.2946 35.8405 57.4082 35.6708 57.5645 35.5681C57.6431 35.5162 57.7435 35.5181 57.8265 35.5596C58.0851 35.6888 58.0571 36.096 58.1069 36.3468C58.1532 36.5787 58.2126 36.8069 58.2763 37.0341C58.4082 37.5083 58.5052 37.8759 58.7148 38.6839C58.9253 39.4918 59.5279 41.5282 59.8887 42.3898C60.2494 43.2525 60.3813 43.5975 60.8835 44.282C61.3866 44.9664 62.5945 45.0088 63.219 44.7005C63.8426 44.3923 64.2575 43.9708 64.6776 43.6475C65.0986 43.3241 65.4803 43.0752 65.834 42.9791C66.1869 42.8829 66.2445 42.8245 66.3275 43.1365C66.4096 43.4486 66.3467 43.4853 66.069 43.8115C65.7904 44.1387 64.9292 44.7628 64.5519 45.0145C64.1754 45.2662 64.0112 45.4208 63.6837 45.6178C63.3553 45.8149 63.2173 45.9091 62.8303 46.1081C62.4434 46.306 61.5185 46.4729 61.1115 46.3249C60.7044 46.1769 60.452 46.0553 60.2258 45.7875C59.4546 44.874 59.1978 43.9416 58.782 42.8037C58.3672 41.6649 57.9331 40.3384 57.5706 39.1666C57.4649 38.8234 57.34 38.3615 57.2597 38.1145C57.1793 37.8675 57.2239 37.9683 57.1129 37.8976C57.002 37.8269 56.9915 37.9335 56.9514 38.0145C55.6788 40.6099 54.3975 43.2657 53.0524 45.7988C52.8218 46.2325 52.6961 46.784 52.2646 46.9217C51.7231 47.0951 51.1186 47.1112 50.6889 46.6605C50.3815 46.3381 50.2452 45.9176 50.1002 45.4962C49.957 45.0776 49.9098 44.6411 49.8845 44.2018L49.8863 44.2009Z" fill="#FAFAFA"/>
<path d="M65.0122 43.9583L65.0205 43.9493Z" fill="#FAFAFA"/>
<path d="M74.8032 46.4786C74.805 46.5229 74.8076 46.5682 74.8233 46.6097C74.8521 46.6842 74.9203 46.7322 74.9901 46.7643C75.2076 46.8633 75.4705 46.8388 75.6688 46.7002C75.8671 46.5616 75.9954 46.3127 75.9998 46.0582C76.0016 45.9733 75.992 45.8555 75.9544 45.7782C75.9107 45.6896 75.7902 45.6254 75.7177 45.567C75.667 45.5255 75.6164 45.484 75.557 45.4605C75.5133 45.4425 75.467 45.435 75.4207 45.4331C75.26 45.4275 75.0984 45.4963 74.9849 45.6198C74.7805 45.8423 74.7884 46.1883 74.8024 46.4786H74.8032Z" fill="#FAFAFA"/>
<path d="M45.7803 33.1735C45.7794 33.1961 45.7803 33.2188 45.7794 33.2405C45.7366 33.8674 45.2004 34.5792 44.7383 34.5622C44.6047 34.5575 44.4055 34.385 44.3636 34.2558C44.1802 33.6864 44.6562 32.8068 45.2178 32.6069C45.6353 32.458 45.7987 32.623 45.7803 33.1735Z" fill="#FAFAFA"/>
<path d="M73.3787 44.4885C73.4407 44.1708 73.335 43.8361 73.1568 43.575C73.1158 43.5146 73.0625 43.4533 72.9944 43.4496C72.9192 43.4458 72.8599 43.5052 72.8171 43.5665C72.7646 43.6419 72.7253 43.7173 72.6616 43.7852C72.4755 43.9841 72.2738 44.2009 72.0546 44.3584C71.9148 44.4687 71.7707 44.5554 71.6275 44.6403C71.5768 44.6685 71.5323 44.7072 71.4807 44.7327C71.0344 44.9533 70.5392 45.0513 70.0483 45.0306C69.2788 44.9787 68.5015 44.5988 67.7774 43.8436C67.5093 43.5646 67.2909 43.2308 67.035 42.9377C66.7765 42.6416 66.7966 42.3918 66.9739 42.0232C67.9084 40.0764 68.1783 38.0551 67.3931 35.965C67.1494 35.3164 67.0499 35.2938 66.4979 35.685C65.7755 36.197 65.2567 36.8908 64.9659 37.7723C64.4541 39.3194 64.6576 40.8372 65.1213 42.3484C65.1738 42.5181 65.3921 43.1469 65.3065 43.2252C65.0558 43.4524 64.7938 43.6428 64.5292 43.8069C64.6645 44.0671 64.5798 44.0256 64.5501 44.282C64.5344 44.4272 64.503 44.5488 64.4785 44.6789C64.9187 44.4489 65.3572 44.2047 65.8105 43.9756C66.0786 44.3537 66.3817 44.8552 66.752 45.2908C67.0595 45.6528 67.3984 45.9865 67.7713 46.2693C68.1154 46.5305 68.4901 46.7483 68.891 46.8906C69.271 47.0254 69.6727 47.0895 70.0736 47.0631C70.4964 47.0349 70.9078 46.9057 71.2859 46.7011C71.7393 46.456 72.141 46.1091 72.4948 45.7188C72.6205 45.5915 72.7411 45.452 72.8616 45.3181C72.9446 45.2257 73.0267 45.1305 73.1053 45.0343C73.1437 44.9881 73.1865 44.9419 73.2197 44.892C73.2389 44.8628 73.2939 44.7873 73.2939 44.7515C73.3271 44.678 73.3795 44.5724 73.3795 44.4885H73.3787ZM66.2926 41.3425C65.5808 40.3686 65.724 38.9423 66.6263 38.0155C67.0691 38.6264 66.8918 40.3913 66.2926 41.3425Z" fill="#FAFAFA"/>
</svg>
