<svg width="81" height="47" viewBox="0 0 81 47" fill="none" xmlns="http://www.w3.org/2000/svg">
<g clip-path="url(#clip0_219_2)">
<path d="M30.7124 26.5885C30.7621 26.1922 30.9603 26.0936 31.2819 26.019C32.0497 25.8955 32.7916 25.771 33.5594 25.6475C36.4303 25.2024 39.3252 24.8061 42.1713 24.2862C43.9529 23.9646 45.6109 23.3213 46.9722 22.0337C48.5307 20.5489 48.8782 18.5692 47.9123 16.6383C47.3427 15.5001 46.5261 14.5351 45.4874 13.7923C43.4091 12.2577 40.9833 11.6642 38.4838 11.4162C35.1676 11.0946 31.8764 11.3913 28.5843 11.8365C26.976 12.0595 25.3677 12.3065 23.7336 12.5296C23.6838 12.4061 23.6598 12.3065 23.634 12.183C23.2386 9.73328 22.8921 7.28259 22.4718 4.83283C22.199 3.34804 21.8036 1.86325 21.482 0.378462C21.4073 0.0568037 21.2847 -0.116468 20.9373 0.0816884C20.541 0.304729 20.2691 0.948046 20.3677 1.39321C20.8875 3.86785 21.4313 6.36739 21.9022 8.84204C22.1493 10.1038 22.2976 11.3913 22.4718 12.7029C22.199 12.7766 21.976 12.8264 21.7778 12.8512C18.8829 13.4448 16.0119 13.9397 13.141 14.6079C9.082 15.5729 5.17142 16.9591 1.53364 19.0872C0.915205 19.4337 0.320736 19.7803 0 20.4485V21.018C0.247926 20.9683 0.519814 20.9683 0.71797 20.8697C3.78709 18.9637 7.10229 17.677 10.5926 16.7858C13.5124 16.0429 16.482 15.4494 19.4276 14.7812C20.4672 14.5582 21.5308 14.3849 22.5456 14.1876C22.917 15.4005 23.5354 25.2254 23.3622 26.8835C21.3824 27.2549 19.4018 27.6503 17.3981 27.9968C16.7299 28.0954 16.3585 28.442 16.1603 29.0365C16.0608 29.4079 16.1106 29.6549 16.5806 29.5314C17.8423 29.2595 19.1299 29.0365 20.3917 28.7397C21.3815 28.5166 22.3714 28.2448 23.411 27.9968C23.4359 28.1452 23.4608 28.2438 23.4608 28.3434C23.411 32.5996 23.3612 36.8567 23.3124 41.1378C23.2875 42.6475 23.1889 44.182 23.164 45.6917C23.164 45.8401 23.2635 45.9885 23.3124 46.1369C23.4608 46.0871 23.6838 46.0622 23.7327 45.9387C23.9557 45.5922 24.2525 45.1959 24.2774 44.8254C24.4009 40.6678 24.4995 36.5102 24.5741 32.3775C24.599 30.9664 24.599 29.5812 24.5741 28.195C24.5492 27.7738 24.7225 27.6254 25.0691 27.5268C25.787 27.3535 26.505 27.1554 27.1981 26.9821C27.9409 26.7839 28.6829 26.6107 29.4746 26.4374C29.4746 26.6355 29.4995 26.759 29.4995 26.8825C29.3271 28.912 29.1529 30.9415 28.9299 32.9461C28.7078 35.0742 28.3852 37.2023 28.2119 39.3314C28.0884 41.0392 28.1373 42.771 28.8055 44.3802C29.5732 46.2115 30.5372 46.4834 31.9234 45.0733C33.0617 43.9102 34.0524 42.5738 35.0414 41.2374C35.6847 40.3959 36.1796 39.4309 36.7732 38.5397C36.9216 38.3166 37.1695 38.1185 37.3676 37.9212C37.516 38.1931 37.6893 38.4659 37.7879 38.7378C37.8617 38.9609 37.8875 39.2079 37.9114 39.4558C38.0598 40.8908 38.6543 42.1037 39.5455 43.2171C40.2635 44.0834 41.1538 44.4549 42.1446 44.2318C42.2432 44.2069 42.3667 44.1572 42.4662 44.1332C42.8128 44.0337 43.1842 43.8613 43.5059 43.712C43.8773 43.5387 44.2478 43.3157 44.5455 43.0189C44.892 42.6973 45.1639 42.3258 45.4607 41.9793C45.4856 41.9295 45.6589 41.806 45.6589 41.7562C46.2036 41.1378 46.3271 40.9397 46.5501 40.5433H46.4755C46.352 40.4438 46.2275 40.3701 46.104 40.2954C46.0543 40.2456 46.0303 40.1719 45.9805 40.1221C45.8321 40.3452 45.6589 40.5673 45.5096 40.7655C45.2377 41.112 44.8911 41.4337 44.5695 41.7056C44.3464 41.9286 44.0745 42.1019 43.8017 42.2991C43.752 42.324 43.7271 42.3489 43.6782 42.3738C42.5151 43.0668 41.2773 43.1406 40.2635 41.7056C40.14 41.5074 39.9907 41.3092 39.8921 41.0871C39.1252 39.6272 38.8285 38.018 38.5805 36.3848C38.5308 36.1369 38.4082 35.8899 38.3087 35.618C38.0607 35.7913 37.7888 35.9397 37.5658 36.1129C37.3925 36.2613 37.269 36.4595 37.1455 36.6576C36.4276 37.6475 35.7594 38.6622 34.9925 39.6272C33.9529 40.865 32.9391 42.1019 31.775 43.2401C30.8598 44.1314 30.117 43.8337 29.7713 42.5968C29.7465 42.4982 29.7216 42.4235 29.6967 42.3249C29.152 39.9738 29.3004 37.6226 29.622 35.2715C29.9935 32.3756 30.3649 29.4807 30.7105 26.5849L30.7124 26.5885ZM29.3511 25.5001C27.8174 25.8466 26.3068 26.1931 24.7732 26.5148C24.7234 26.5397 24.6737 26.5148 24.6248 26.5148C24.4018 22.3323 24.1548 18.1498 23.9317 13.8936C25.4663 13.6955 27.0497 13.4485 28.6589 13.2752C31.3068 12.9784 33.9796 12.9038 36.6524 13.1019C39.3004 13.2752 41.9234 13.6217 44.2248 15.1065C45.3142 15.7996 46.2294 16.666 46.8976 17.7545C47.8128 19.1406 47.5907 20.3286 46.2294 21.3185C45.1658 22.0853 43.9529 22.5314 42.6662 22.8033C40.1169 23.348 37.5437 23.7932 34.9944 24.313C33.8064 24.56 32.5935 24.8079 31.4064 25.0558C31.258 25.1056 31.0847 25.1296 30.8128 25.1793C31.011 22.7784 31.1842 20.477 31.3824 18.1757C30.8128 18.1757 30.3677 18.5969 30.269 19.289C30.1207 20.477 29.9962 21.6402 29.8488 22.8282C29.7741 23.571 29.7492 24.313 29.6506 25.0558C29.6257 25.2291 29.4773 25.4761 29.3529 25.501L29.3511 25.5001Z" fill="#070707"/>
<path d="M52.2846 42.398C52.3565 42.3132 52.4321 42.2321 52.5151 42.1556C52.551 42.1224 52.5888 42.0892 52.6118 42.0459C52.6708 41.9298 52.6183 41.7362 52.61 41.6109C52.5989 41.4404 52.5759 41.2671 52.5759 41.0966C52.5759 41.1242 52.4865 41.2026 52.4671 41.2256C52.4247 41.2763 52.3814 41.327 52.339 41.3786C52.0312 41.7445 51.6911 42.0837 51.339 42.4072C50.9962 42.7233 50.6469 43.0404 50.2653 43.3086C50.222 43.339 50.1787 43.3685 50.1344 43.398C49.7639 43.6422 49.3768 43.8698 48.9178 44.1021C48.4589 44.3344 47.5676 44.5076 47.2082 44.033C46.8487 43.5592 46.8533 43.491 46.7261 42.8763C46.5676 42.1122 46.5943 41.3279 46.6137 40.5528C46.6321 39.8007 46.6856 39.0505 46.7907 38.3058C46.892 37.5869 47.0404 36.8735 47.2524 36.1795C47.3105 35.9888 47.4128 35.6542 47.2865 35.4708C47.2109 35.362 47.0469 35.3408 46.9261 35.339C46.6847 35.3353 46.2589 35.4155 46.14 35.6616C45.9907 35.9694 45.9455 36.3371 45.869 36.6689C45.5169 38.1878 45.4561 39.7325 45.4616 41.2864C45.4625 41.6597 45.4616 42.033 45.4874 42.4053C45.5003 42.5952 45.5188 42.786 45.5427 42.9749C45.5639 43.1408 45.5851 43.3049 45.6275 43.492C45.7778 44.2182 46.5593 45.1021 46.9639 45.4459C47.3685 45.7897 47.528 45.7528 47.8008 45.7648C48.5132 45.7952 49.1704 45.3786 49.7049 44.9509C50.2072 44.5482 50.6404 44.0735 51.1105 43.6376C51.3658 43.4016 51.61 43.1583 51.8524 42.9086C52.0081 42.7482 52.1409 42.5675 52.2856 42.398H52.2846Z" fill="#070707"/>
<path d="M52.6413 43.209C52.6303 43.032 52.6229 42.8551 52.6146 42.6781C52.516 40.7039 52.3206 38.7223 52.563 36.75C52.6035 36.4182 52.6542 36.0873 52.7123 35.7583C52.7602 35.4892 52.8782 35.174 52.8782 34.9012C52.9224 34.5214 52.8588 34.4864 53.0598 34.2486C53.2607 34.0099 53.7031 33.409 53.9215 34.1039C54.1399 34.7998 53.7455 36.0744 53.6367 36.8661C53.528 37.6569 53.4782 38.5601 53.4948 39.303C53.5104 40.0458 53.4819 40.715 53.5233 41.3887C53.5501 41.8375 53.5399 42.2873 53.5584 42.7362C53.5731 43.1113 53.6339 43.4827 53.6459 43.8578C53.657 44.1868 53.6846 44.3997 53.9464 44.6302C54.4054 45.0357 54.8542 44.7002 55.1823 44.0726C55.5114 43.4458 56.116 42.5454 56.5095 41.8246C57.3372 40.3122 58.3565 38.5058 59.1445 37.0569C59.3998 36.5878 59.6819 36.1325 59.9832 35.691C60.1003 35.5205 60.2146 35.3482 60.3418 35.185C60.4588 35.0357 60.5786 34.8698 60.7436 34.7694C60.8266 34.7187 60.9325 34.7205 61.0201 34.7611C61.2929 34.8873 61.2634 35.2855 61.316 35.5306C61.3648 35.7574 61.4275 35.9804 61.4948 36.2025C61.6339 36.6661 61.7362 37.0256 61.9574 37.8154C62.1795 38.6053 62.8155 40.5961 63.1961 41.4385C63.5768 42.2818 63.716 42.6191 64.2459 43.2882C64.7768 43.9574 66.0514 43.9988 66.7104 43.6974C67.3685 43.3961 67.8063 42.9841 68.2496 42.668C68.6938 42.3518 69.0966 42.1085 69.4699 42.0145C69.8422 41.9205 69.903 41.8633 69.9906 42.1684C70.0772 42.4735 70.0109 42.5094 69.7178 42.8283C69.4238 43.1481 68.515 43.7583 68.1169 44.0044C67.7196 44.2504 67.5464 44.4016 67.2007 44.5942C66.8542 44.7868 66.7086 44.879 66.3003 45.0735C65.892 45.267 64.9159 45.4302 64.4865 45.2855C64.057 45.1408 63.7906 45.0219 63.5519 44.7601C62.7381 43.867 62.4671 42.9555 62.0284 41.8431C61.5906 40.7297 61.1325 39.4329 60.7501 38.2873C60.6385 37.9518 60.5067 37.5002 60.422 37.2588C60.3372 37.0173 60.3842 37.1159 60.2671 37.0468C60.1501 36.9776 60.139 37.0818 60.0966 37.1611C58.7538 39.6984 57.4017 42.2947 55.9823 44.7712C55.739 45.1951 55.6063 45.7343 55.151 45.8689C54.5796 46.0385 53.9418 46.0541 53.4883 45.6136C53.1639 45.2984 53.0201 44.8873 52.8671 44.4753C52.716 44.0661 52.6662 43.6394 52.6395 43.2099L52.6413 43.209Z" fill="#070707"/>
<path d="M68.6026 42.9702L68.6098 42.9629Z" fill="#070707"/>
<path d="M78.9344 45.436C78.9362 45.4793 78.939 45.5236 78.9555 45.5641C78.986 45.6369 79.0579 45.6839 79.1316 45.7153C79.3611 45.812 79.6385 45.7881 79.8477 45.6526C80.0569 45.5171 80.1924 45.2738 80.197 45.0249C80.1989 44.942 80.1887 44.8268 80.1491 44.7512C80.103 44.6646 79.9758 44.6019 79.8993 44.5448C79.8459 44.5042 79.7924 44.4637 79.7297 44.4406C79.6837 44.4231 79.6348 44.4157 79.586 44.4139C79.4164 44.4084 79.2459 44.4756 79.1261 44.5964C78.9104 44.8139 78.9187 45.1521 78.9334 45.436H78.9344Z" fill="#070707"/>
<path d="M48.3086 32.4286C48.3077 32.4507 48.3086 32.4728 48.3077 32.494C48.2625 33.1069 47.6966 33.8028 47.2091 33.7862C47.0681 33.7816 46.8579 33.6129 46.8137 33.4866C46.6201 32.9299 47.1225 32.07 47.7151 31.8747C48.1556 31.729 48.328 31.8903 48.3086 32.4286Z" fill="#070707"/>
<path d="M77.4311 43.4903C77.4966 43.1797 77.3851 42.8525 77.197 42.5972C77.1537 42.5382 77.0975 42.4783 77.0256 42.4746C76.9463 42.4709 76.8837 42.529 76.8385 42.5889C76.7832 42.6626 76.7417 42.7364 76.6745 42.8027C76.4781 42.9972 76.2652 43.2092 76.0339 43.3631C75.8864 43.4709 75.7344 43.5557 75.5832 43.6387C75.5298 43.6663 75.4828 43.7041 75.4284 43.729C74.9574 43.9447 74.4348 44.0405 73.9169 44.0202C73.1049 43.9695 72.2846 43.5981 71.5205 42.8599C71.2376 42.5871 71.0072 42.2608 70.7371 41.9742C70.4643 41.6848 70.4855 41.4405 70.6726 41.0802C71.6588 39.1769 71.9436 37.2009 71.115 35.1576C70.8579 34.5235 70.7528 34.5014 70.1703 34.8839C69.4081 35.3843 68.8606 36.0627 68.5537 36.9244C68.0136 38.4368 68.2284 39.9207 68.7178 41.3981C68.7731 41.564 69.0035 42.1788 68.9132 42.2553C68.6487 42.4774 68.3722 42.6636 68.0929 42.8239C68.2358 43.0783 68.1464 43.0378 68.115 43.2884C68.0984 43.4304 68.0653 43.5493 68.0395 43.6765C68.504 43.4516 68.9666 43.2129 69.445 42.9889C69.7279 43.3585 70.0477 43.8488 70.4385 44.2746C70.7629 44.6285 71.1206 44.9548 71.5141 45.2313C71.8772 45.4866 72.2726 45.6995 72.6957 45.8387C73.0966 45.9705 73.5205 46.0331 73.9436 46.0073C74.3897 45.9797 74.8238 45.8534 75.2228 45.6534C75.7012 45.4138 76.1251 45.0746 76.4984 44.693C76.6311 44.5686 76.7583 44.4322 76.8855 44.3013C76.9731 44.211 77.0597 44.1179 77.1427 44.0239C77.1832 43.9788 77.2284 43.9336 77.2634 43.8848C77.2837 43.8562 77.3417 43.7825 77.3417 43.7474C77.3768 43.6755 77.4321 43.5723 77.4321 43.4903H77.4311ZM69.9537 40.4147C69.2026 39.4626 69.3537 38.0682 70.3058 37.1622C70.7731 37.7594 70.586 39.4848 69.9537 40.4147Z" fill="#070707"/>
</g>
<defs>
<clipPath id="clip0_219_2">
<rect width="80.197" height="46.14" fill="white"/>
</clipPath>
</defs>
</svg>
