<svg xmlns="http://www.w3.org/2000/svg" xmlns:xlink="http://www.w3.org/1999/xlink" width="870.142" height="500.621" viewBox="0 0 870.142 500.621"><defs><clipPath id="a"><rect width="870.142" height="500.621" fill="none"/></clipPath></defs><g transform="translate(2494 354)"><g transform="translate(-2494 -354)"><g clip-path="url(#a)"><path d="M333.227,288.493c.537-4.3,2.687-5.371,6.175-6.176,8.326-1.343,16.382-2.686,24.708-4.028,31.146-4.833,62.56-9.13,93.443-14.768,19.333-3.491,37.321-10.473,52.091-24.436,16.913-16.11,20.676-37.591,10.2-58.536A83.52,83.52,0,0,0,493.53,149.67c-22.551-16.648-48.865-23.093-75.992-25.778-35.977-3.491-71.692-.269-107.407,4.564-17.451,2.418-34.9,5.1-52.628,7.52a20.3,20.3,0,0,1-1.075-3.76c-4.294-26.583-8.05-53.166-12.613-79.749-2.956-16.111-7.25-32.222-10.744-48.334-.807-3.491-2.144-5.369-5.907-3.222-4.3,2.418-7.25,9.4-6.175,14.232,5.637,26.852,11.544,53.972,16.651,80.824,2.681,13.695,4.294,27.656,6.175,41.888a55.183,55.183,0,0,1-7.526,1.612c-31.414,6.444-62.559,11.814-93.705,19.063C98.544,169,56.116,184.04,16.645,207.132,9.932,210.891,3.488,214.651,0,221.9v6.176c2.688-.538,5.638-.538,7.788-1.611,33.3-20.677,69.273-34.638,107.138-44.306,31.683-8.055,63.9-14.5,95.862-21.75,11.276-2.416,22.82-4.3,33.827-6.444,4.032,13.157,10.745,119.759,8.863,137.749-21.482,4.028-42.965,8.324-64.71,12.083-7.25,1.074-11.282,4.834-13.426,11.278-1.075,4.028-.537,6.713,4.563,5.37,13.7-2.953,27.658-5.37,41.352-8.592,10.739-2.418,21.483-5.371,32.759-8.056a25.09,25.09,0,0,1,.537,3.76c-.537,46.184-1.075,92.37-1.612,138.823-.269,16.379-1.344,33.027-1.613,49.406,0,1.611,1.075,3.223,1.613,4.834,1.612-.537,4.025-.806,4.562-2.148,2.419-3.76,5.638-8.055,5.913-12.084,1.338-45.11,2.413-90.221,3.219-135.063.269-15.3.269-30.342,0-45.379-.269-4.566,1.613-6.177,5.369-7.25,7.788-1.88,15.576-4.029,23.1-5.909,8.057-2.147,16.108-4.026,24.7-5.906,0,2.148.269,3.491.269,4.833-1.875,22.018-3.757,44.037-6.176,65.787-2.412,23.092-5.906,46.184-7.788,69.277-1.337,18.528-.806,37.323,6.444,54.777,8.326,19.87,18.8,22.823,33.834,7.518,12.35-12.62,23.1-27.119,33.833-41.62,6.982-9.129,12.351-19.6,18.795-29.267,1.613-2.418,4.3-4.566,6.451-6.713a70.117,70.117,0,0,1,4.562,8.86,36.3,36.3,0,0,1,1.338,7.788c1.612,15.572,8.056,28.731,17.726,40.813,7.788,9.4,17.451,13.426,28.2,11.01,1.069-.269,2.413-.806,3.488-1.073a83.21,83.21,0,0,0,11.282-4.566,39.541,39.541,0,0,0,11.276-7.518c3.756-3.491,6.713-7.519,9.931-11.279.269-.536,2.151-1.878,2.151-2.416,5.906-6.712,7.25-8.861,9.669-13.157h-.806a35.1,35.1,0,0,0-4.032-2.686c-.537-.536-.8-1.342-1.337-1.88-1.613,2.418-3.494,4.835-5.107,6.982a73.187,73.187,0,0,1-10.2,10.2A68.228,68.228,0,0,1,475.273,459c-.538.269-.806.538-1.344.806-12.619,7.518-26.045,8.324-37.052-7.25a55.516,55.516,0,0,1-4.032-6.713c-8.319-15.842-11.544-33.3-14.232-51.017-.537-2.686-1.875-5.371-2.95-8.324-2.688,1.878-5.638,3.489-8.057,5.369a24.77,24.77,0,0,0-4.562,5.908c-7.788,10.74-15.039,21.75-23.364,32.222-11.276,13.426-22.283,26.852-34.909,39.2-9.932,9.668-17.988,6.444-21.745-6.982-.269-1.073-.537-1.878-.806-2.953-5.907-25.51-4.3-51.017-.806-76.527,4.025-31.416,8.056-62.833,11.813-94.249m-14.77-11.815c-16.645,3.76-33.027,7.519-49.672,11.008-.537.269-1.075,0-1.612,0-2.419-45.379-5.1-90.757-7.52-136.942,16.652-2.149,33.834-4.833,51.291-6.713a467.662,467.662,0,0,1,86.731-1.88c28.726,1.88,57.19,5.639,82.161,21.75,11.819,7.519,21.751,16.916,29,28.731q14.9,22.556-7.25,38.667c-11.544,8.324-24.7,13.157-38.665,16.11-27.658,5.908-55.585,10.741-83.242,16.381-12.889,2.684-26.046,5.369-38.934,8.055a51.62,51.62,0,0,1-6.444,1.342c2.15-26.045,4.031-51.019,6.175-75.99-6.175,0-11.007,4.566-12.082,12.083-1.612,12.888-2.956,25.509-4.562,38.4-.807,8.055-1.076,16.112-2.151,24.167-.268,1.88-1.881,4.564-3.225,4.833" fill="#fff"/><path d="M567.286,460.017a29.355,29.355,0,0,1,2.5-2.626,4.487,4.487,0,0,0,1.047-1.193c.642-1.258.073-3.357-.017-4.717-.122-1.847-.371-3.733-.371-5.585,0,.3-.968,1.151-1.179,1.4l-1.393,1.655a123.173,123.173,0,0,1-10.846,11.163,115.551,115.551,0,0,1-11.654,9.78c-.468.329-.94.653-1.418.968a130.672,130.672,0,0,1-13.2,7.642c-4.975,2.524-14.645,4.4-18.545-.749s-3.848-5.878-5.232-12.549c-1.718-8.286-1.434-16.8-1.223-25.209a212.139,212.139,0,0,1,1.918-24.384,152.134,152.134,0,0,1,5.009-23.072c.629-2.067,1.741-5.7.369-7.688-.816-1.181-2.6-1.408-3.907-1.428-2.618-.041-7.238.833-8.531,3.5-1.619,3.338-2.113,7.334-2.945,10.927-3.819,16.484-4.475,33.242-4.424,50.1.012,4.055,0,8.1.283,12.144.143,2.065.336,4.126.6,6.179.23,1.8.462,3.577.922,5.615,1.626,7.876,10.109,17.465,14.5,21.2s6.116,3.333,9.08,3.459c7.726.329,14.86-4.188,20.656-8.831,5.452-4.367,10.146-9.521,15.254-14.252,2.767-2.563,5.423-5.2,8.046-7.907,1.688-1.743,3.127-3.7,4.7-5.541" fill="#fff"/><path d="M571.164,468.816c-.12-1.917-.2-3.841-.294-5.758-1.067-21.421-3.193-42.925-.556-64.317q.666-5.4,1.624-10.764c.522-2.917,1.8-6.34,1.8-9.3.477-4.124-.21-4.5,1.973-7.084s6.975-9.112,9.355-1.566-1.915,21.384-3.088,29.969a176.816,176.816,0,0,0-1.541,26.442c.171,8.06-.137,15.318.308,22.626.293,4.867.185,9.746.376,14.616.159,4.069.819,8.1.953,12.169.118,3.57.422,5.877,3.26,8.382,4.983,4.4,9.853.755,13.413-6.049s10.128-16.572,14.4-24.39c8.981-16.409,20.04-36.012,28.589-51.729a171.077,171.077,0,0,1,9.1-14.822c1.266-1.854,2.506-3.721,3.892-5.491a17.754,17.754,0,0,1,4.361-4.507,3.231,3.231,0,0,1,3-.1c2.964,1.366,2.643,5.686,3.213,8.347.527,2.46,1.215,4.882,1.94,7.29,1.515,5.026,2.616,8.933,5.022,17.5s9.309,30.167,13.439,39.314,5.644,12.813,11.393,20.07,19.6,7.706,26.741,4.44,11.891-7.74,16.7-11.175,9.191-6.07,13.236-7.089,4.7-1.635,5.651,1.674.216,3.7-2.963,7.162-13.053,10.089-17.366,12.756-6.189,4.31-9.945,6.4-5.343,3.1-9.768,5.2-15.019,3.868-19.68,2.3-7.552-2.857-10.141-5.7c-8.83-9.692-11.767-19.577-16.527-31.655s-9.722-26.15-13.865-38.579c-1.212-3.644-2.642-8.542-3.559-11.158s-.413-1.552-1.679-2.3-1.389.377-1.848,1.239c-14.567,27.529-29.238,55.7-44.644,82.573-2.635,4.6-4.077,10.449-9.02,11.912-6.2,1.835-13.121,2.01-18.045-2.771-3.52-3.419-5.084-7.883-6.74-12.35a47.605,47.605,0,0,1-2.474-13.734" fill="#fff"/><path d="M744.336,466.186l.042-.042" fill="#fff"/><path d="M856.444,492.984a4.146,4.146,0,0,0,.232,1.389,3.356,3.356,0,0,0,1.9,1.639,8.319,8.319,0,0,0,11.56-7.492,6.644,6.644,0,0,0-.524-2.966c-.5-.939-1.88-1.616-2.707-2.242a7.607,7.607,0,0,0-1.836-1.132,4.878,4.878,0,0,0-1.557-.286,6.8,6.8,0,0,0-4.986,1.979c-2.343,2.359-2.245,6.03-2.087,9.111" fill="#fff"/><path d="M524.15,351.848c-.01.238.005.476-.013.713-.486,6.65-6.628,14.2-11.921,14.018a6.038,6.038,0,0,1-4.286-3.25c-2.1-6.037,3.351-15.373,9.778-17.494,4.778-1.578,6.648.166,6.442,6.013" fill="#fff"/><path d="M840.131,471.87a12.432,12.432,0,0,0-2.537-9.688,2.7,2.7,0,0,0-1.862-1.327,2.555,2.555,0,0,0-2.026,1.24,18.72,18.72,0,0,1-1.779,2.323,48.611,48.611,0,0,1-6.953,6.077,41.961,41.961,0,0,1-4.89,2.989c-.577.3-1.095.708-1.685.979A36.185,36.185,0,0,1,802,477.626c-8.811-.549-17.707-4.578-26-12.587-3.074-2.962-5.572-6.5-8.5-9.614-2.957-3.135-2.734-5.788-.7-9.7,10.7-20.648,13.793-42.088,4.8-64.262-2.793-6.88-3.933-7.123-10.253-2.975a43.442,43.442,0,0,0-17.543,22.14c-5.861,16.407-3.533,32.509,1.783,48.544.6,1.8,3.1,8.473,2.118,9.3a60.527,60.527,0,0,1-8.9,6.171c1.554,2.76.577,2.316.243,5.038-.184,1.537-.544,2.833-.82,4.21,5.042-2.439,10.063-5.035,15.255-7.455,3.075,4.012,6.543,9.333,10.784,13.953a72.57,72.57,0,0,0,11.666,10.376,49.212,49.212,0,0,0,12.817,6.586,34.931,34.931,0,0,0,27.411-2.016A52.518,52.518,0,0,0,830,484.92c1.445-1.354,2.817-2.827,4.2-4.249q1.433-1.473,2.8-3.012a19.768,19.768,0,0,0,1.308-1.514c.221-.309.853-1.108.853-1.485a7.386,7.386,0,0,0,.981-2.79M759,438.5c-8.149-10.333-6.51-25.455,3.822-35.292,5.067,6.475,3.035,25.205-3.822,35.292" fill="#fff"/></g></g></g></svg>