<svg width="1023" height="212" viewBox="0 0 1023 212" fill="none" xmlns="http://www.w3.org/2000/svg">
<path d="M264.929 110.117C264.593 110.413 264.209 110.684 263.925 111.011C259.153 116.521 254.017 121.78 247.943 126.386C246.17 127.729 245.32 129.355 244.841 131.25C243.691 135.799 241.332 139.905 238.182 143.804C234.825 147.956 230.245 151.073 225.703 154.185C222.662 156.27 219.049 157.833 215.58 159.473C207.093 163.482 198.164 166.62 188.394 167.852C186.15 168.134 183.814 168.029 181.528 167.971C177.958 167.877 174.36 167.861 170.834 167.455C167.959 167.123 165.164 166.24 163.047 164.475C160.114 162.034 156.88 159.826 154.645 156.849C151.962 153.277 150.427 149.377 149.202 145.363C147.529 139.877 147.05 134.288 147.469 128.678C147.974 121.937 148.316 115.156 151.044 108.668C151.26 108.159 151.409 107.605 151.417 107.07C151.472 104.329 153.03 102.242 155.566 100.563C156.794 99.7494 157.982 99.8919 158.843 100.974C159.913 102.32 160.232 103.752 159.664 105.324C158.304 109.093 156.932 112.862 155.687 116.656C155.259 117.963 155.196 119.348 155.32 120.748C155.724 119.507 156.129 118.269 156.528 117.028C156.565 116.916 156.539 116.79 156.582 116.682C157.83 113.514 158.585 110.133 160.458 107.233C162.846 103.539 166.409 100.525 170.782 98.0788C173.35 96.6418 175.852 95.1558 178.701 94.1838C184.873 92.0786 191.157 90.2561 198.023 90.4594C200.267 90.5272 202.516 90.5062 204.763 90.4664C211.314 90.3473 217.399 91.8637 223.327 93.9245C225.347 94.6278 227.364 95.3638 229.267 96.2516C234.116 98.5181 237.631 101.869 240.405 105.761C242.927 109.299 244.242 113.208 245.452 117.133C245.728 118.023 246.224 118.248 246.985 117.596C250.324 114.717 253.673 111.846 256.892 108.878C258.72 107.194 260.398 105.385 261.968 103.532C265.001 99.948 268.065 96.3778 268.544 91.8006C268.929 88.1159 270.857 84.9336 273.913 82.2045C275.393 80.8844 276.857 81.097 277.497 82.8284C277.89 83.8891 277.961 85.0317 278.162 86.1415C278.254 86.6532 278.309 87.1696 278.38 87.6836C278.552 87.7327 278.722 87.7841 278.894 87.8332C279.387 87.2654 279.884 86.6976 280.374 86.1299C281.66 84.6392 282.621 84.5387 284.133 85.8939C284.819 86.5084 285.356 87.2771 285.769 88.0435C288.236 92.6394 290.526 97.3007 293.103 101.855C296.801 108.392 300.583 114.902 304.531 121.343C308.393 127.643 312.637 133.785 316.467 140.094C320.088 146.059 325.603 150.727 331.491 155.118C333.551 156.655 336.288 157.651 338.85 158.669C341.605 159.765 342.833 161.567 343.335 163.873C343.57 164.959 343.1 165.786 341.992 166.377C339.525 167.698 336.985 167.842 334.228 166.901C327.534 164.613 322.8 160.508 318.585 155.91C313.024 149.844 308.27 143.36 304.02 136.648C300.741 131.465 297.817 126.133 294.666 120.895C293.194 118.451 291.487 116.1 290.018 113.656C288.001 110.306 286.11 106.908 284.165 103.53C284.001 103.247 283.927 102.873 283.66 102.705C283.129 102.369 282.501 101.978 281.887 101.946C281.571 101.929 281.009 102.598 280.882 103.021C279.39 108.053 277.99 113.103 276.507 118.135C275.491 121.579 274.432 125.014 273.313 128.435C271.738 133.248 270.117 138.052 268.464 142.846C267.586 145.393 266.533 147.898 265.678 150.449C263.859 155.884 262.097 161.331 260.367 166.782C260.086 167.672 259.572 168.349 258.499 168.501C256.961 168.719 255.386 168.856 253.828 168.859C252.674 168.859 252.25 168.078 252.499 167.277C253.019 165.604 252.835 163.824 254.066 162.237C254.671 161.459 254.648 160.295 254.683 159.3C254.749 157.361 254.525 155.431 256.026 153.683C256.531 153.094 256.468 152.19 256.7 151.435C257.934 147.412 259.3 143.412 260.381 139.363C261.334 135.797 261.988 132.176 262.74 128.575C263.282 125.972 263.833 123.367 264.261 120.75C264.611 118.598 264.786 116.425 265.035 114.261C265.15 113.257 265.271 112.252 265.368 111.245C265.4 110.92 265.374 110.593 265.374 110.266C265.228 110.215 265.078 110.166 264.932 110.114L264.929 110.117ZM199.452 96.2049C199.441 96.3217 199.429 96.4409 199.418 96.5577C194.534 96.2563 189.883 96.9059 185.209 98.1419C177.754 100.114 172.154 103.943 167.264 108.719C165.087 110.846 164.983 113.631 163.448 115.948C162.84 116.867 162.229 117.818 161.882 118.813C160.608 122.465 161.015 126.18 162.031 129.774C163.428 134.722 166.266 139.106 171.19 142.423C174.868 144.903 179.023 146.424 183.849 146.538C189.932 146.683 195.533 145.001 200.999 143.183C210.614 139.984 219.262 135.29 228.073 130.895C231.324 129.274 234.033 126.914 236.913 124.82C237.464 124.418 237.883 123.71 237.975 123.105C238.463 119.906 237.318 116.897 235.777 114.054C233.774 110.36 230.701 107.266 227.069 104.464C222.573 100.995 217.319 98.6653 211.46 97.4316C207.584 96.6138 203.458 96.5858 199.443 96.2049H199.452ZM235.496 135.984C235.335 135.921 235.172 135.86 235.011 135.797C234.675 135.986 234.328 136.166 234.004 136.37C232.007 137.629 230.113 139.015 228.007 140.138C221.462 143.629 214.978 147.225 207.799 149.837C204.072 151.192 200.321 152.513 196.522 153.725C191.019 155.48 185.232 155.618 179.436 155.326C176.171 155.16 173.092 154.181 170.69 152.398C167.566 150.076 164.323 147.786 162.163 144.727C159.139 140.447 155.977 136.227 155.85 131.035C155.822 129.895 155.182 128.764 154.826 127.629L154.413 127.671C154.373 128.038 154.278 128.407 154.301 128.771C154.45 131.094 154.835 133.419 154.749 135.734C154.608 139.561 155.893 143.099 157.368 146.653C160.074 153.162 165.726 157.038 173.588 159.057C177.152 159.973 180.799 159.478 184.405 159.625C190.419 159.873 196.015 158.323 201.524 156.744C205.412 155.627 209.084 153.98 212.78 152.452C220.105 149.421 226.948 145.823 232.386 140.704C233.462 139.69 234.305 138.5 235.157 137.344C235.433 136.97 235.393 136.442 235.499 135.984H235.496Z" fill="#070707"/>
<path d="M516.028 143.582C516.103 143.486 516.232 143.395 516.244 143.297C516.459 141.29 516.769 139.283 516.84 137.271C516.929 134.748 517.936 132.39 519.847 130.598C522.608 128.009 525.345 125.275 529.256 123.677C533.109 122.102 536.974 120.579 541.488 120.827C545.146 121.028 548.819 121.079 552.471 121.338C553.771 121.43 555.025 121.939 556.299 122.257C556.818 122.385 557.335 122.514 558.302 122.752C557.897 122.06 557.745 121.68 557.481 121.359C553.886 117.042 549.212 113.513 544.615 109.955C539.643 106.104 533.729 103.373 527.396 101.291C524.266 100.263 521.067 99.2864 517.793 98.6626C514.387 98.013 510.835 98.0294 507.469 98.9944C506.316 99.3262 505.231 100.036 504.365 100.772C503.03 101.908 501.481 102.195 499.682 102.086C498.517 102.013 498.035 101.525 497.946 100.583C497.788 98.8916 499.005 97.6322 499.857 96.2607C501.498 93.6274 504.069 92.2886 507.702 91.5876C512.671 90.6273 517.463 91.0315 522.324 91.6414C529.003 92.4802 535.02 94.7863 540.744 97.5504C543.714 98.985 546.4 100.831 549.1 102.607C551.768 104.361 554.296 106.259 556.878 108.1C557.2 108.329 557.507 108.579 557.776 108.85C559.868 110.967 562.026 113.046 564.014 115.224C569.879 121.647 575.827 128.042 578.935 135.79C579.391 136.928 579.712 138.129 579.853 139.32C580.097 141.362 577.965 143.232 575.443 143.208C574.12 143.197 572.774 143.052 571.489 142.797C570.243 142.552 569.205 142.612 568.387 143.451C567.116 144.75 565.446 145.012 563.475 145.173C560.069 145.454 556.709 146.105 553.335 146.634C547.897 147.484 542.483 148.442 537.026 149.197C533.462 149.69 529.847 149.993 526.237 150.199C524.814 150.281 523.351 149.856 521.902 149.678C521.46 149.624 521.012 149.622 520.2 149.573C520.591 150.482 520.883 151.15 521.164 151.823C522.355 154.652 523.385 157.538 524.774 160.302C526.263 163.272 526.011 166.323 525.982 169.382C525.959 171.828 526.269 174.359 525.606 176.697C524.866 179.31 523.262 181.77 521.91 184.254C519.021 189.567 513.305 192.861 508.342 196.689C504.721 199.481 500.425 201.476 495.903 203.046C489.548 205.254 483.129 207.392 476.573 209.145C472.682 210.184 468.476 210.458 464.404 211.025C458.838 211.801 453.205 212.243 447.59 211.86C442.962 211.544 438.371 210.771 433.795 210.065C428.598 209.264 423.692 207.71 419.015 205.726C415.661 204.306 412.433 202.679 410.031 200.224C407.879 198.023 406.958 195.502 407.575 192.684C408.077 190.389 408.605 188.1 409.153 185.812C409.535 184.221 410.209 182.754 411.738 181.609C412.843 180.782 413.999 180.693 415.296 181.2C416.622 181.716 417.107 182.653 416.763 183.721C416.22 185.408 415.486 187.055 414.794 188.707C413.334 192.196 414.011 193.784 417.265 195.233C423.488 198.006 429.835 200.495 436.985 201.31C439.088 201.551 441.129 202.137 443.223 202.464C444.336 202.637 445.501 202.651 446.64 202.628C449.619 202.567 452.68 203.056 455.492 201.801C455.573 201.766 455.679 201.754 455.773 201.759C459.624 201.946 463.391 201.408 467.116 200.74C470.935 200.056 474.768 199.343 478.478 198.345C483.41 197.018 488.4 195.691 493.048 193.838C497.909 191.901 502.701 189.658 506.551 186.48C508.666 184.737 510.207 182.536 512.014 180.548C512.924 179.548 513.931 178.604 514.757 177.562C515.813 176.23 516.849 174.873 517.687 173.445C520.12 169.295 519.575 165.12 517.538 160.998C515.036 155.935 511.598 151.272 507.128 147.26C503.883 144.346 499.943 141.932 496.199 139.409C493.961 137.902 491.579 136.512 489.123 135.245C481.534 131.336 473.408 128.378 464.809 126.25C459.472 124.927 454.006 124.11 448.48 124.152C444.566 124.182 440.626 124.883 436.767 125.554C434.469 125.953 432.34 126.96 430.067 127.512C428.865 127.804 427.514 127.794 426.24 127.759C424.613 127.712 423.787 126.89 424.039 125.572C424.504 123.147 425.459 120.829 427.706 119.116C429.927 117.422 432.463 116.007 434.698 114.324C438.451 111.504 442.153 108.632 445.725 105.663C447.53 104.163 447.263 101.852 445.559 100.233C442.839 97.6509 439.238 96.6789 435.252 96.5247C432.294 96.4102 429.253 96.1625 426.38 96.5761C421.93 97.2186 417.354 97.7584 413.46 99.957C412.757 100.354 411.81 100.602 410.949 100.653C408.582 100.796 407.449 99.8075 408.008 97.9383C408.665 95.749 409.865 93.6835 412.396 92.5292C416.097 90.8399 420.154 89.9544 424.36 89.5408C426.251 89.3563 428.185 88.9614 430.036 89.1273C435.361 89.6016 440.816 89.3352 445.943 91.104C448.474 91.9778 450.445 93.2559 451.587 95.1765C455.03 100.983 454.58 106.548 449.538 111.693C448.586 112.665 447.579 113.602 446.649 114.588C446.388 114.864 446.104 115.336 446.227 115.586C446.362 115.855 446.95 116.107 447.361 116.128C448.79 116.203 450.227 116.182 451.659 116.184C459.019 116.193 466.045 117.616 472.903 119.628C477.617 121.011 482.383 122.366 486.868 124.161C490.827 125.747 494.615 127.724 498.141 129.895C501.897 132.206 505.335 134.874 508.755 137.523C510.889 139.178 512.746 141.075 514.686 142.89C515.018 143.201 515.145 143.657 515.366 144.047C515.589 143.893 515.813 143.739 516.034 143.584L516.028 143.582ZM544.093 128.741C539.442 128.96 534.621 128.731 530.842 131.663C528.47 133.505 525.741 135.096 524.252 137.575C523.322 139.122 524.002 140.054 526.122 139.967C529.064 139.848 531.996 139.566 534.92 139.273C538.32 138.935 541.703 138.491 545.1 138.133C548.021 137.825 550.95 137.554 553.88 137.306C556.049 137.124 558.227 137.016 560.399 136.86C560.844 136.827 561.28 136.729 561.722 136.661C561.547 136.292 561.498 135.804 561.174 135.572C559.283 134.224 557.3 132.96 555.395 131.624C552.135 129.339 548.388 128.378 544.096 128.736L544.093 128.741Z" fill="#070707"/>
<path d="M697.858 117.443C698.681 117.56 699.157 117.691 699.634 117.689C705.751 117.661 711.891 117.303 717.974 117.649C725.512 118.079 733.095 118.432 740.521 119.798C744.383 120.509 748.314 120.974 752.15 121.761C754.589 122.261 756.907 123.149 759.28 123.862C764.6 125.462 768.21 131.507 767.461 135.801C767.343 136.483 766.895 137.219 766.339 137.748C763.125 140.794 759.303 143.178 754.787 144.869C751.106 146.248 747.513 147.727 743.591 148.68C739.586 149.654 735.804 151.274 731.775 152.15C724.505 153.732 717.022 154.699 709.817 156.449C704.965 157.629 700.041 157.599 695.169 158.22C685.723 159.423 676.217 159.075 666.729 159.092C663.989 159.096 661.34 158.51 658.956 157.313C657.561 156.613 657.137 155.554 657.788 154.299C658.178 153.547 658.589 152.799 659.025 152.063C659.883 150.622 661.056 150.26 663.019 150.528C665.306 150.841 667.621 151.14 669.931 151.182C675.331 151.278 680.734 151.222 686.134 151.215C688.664 151.21 689.342 150.596 688.662 148.654C687.617 145.668 686.464 142.706 685.256 139.762C683.956 136.591 682.518 133.458 681.181 130.296C680.372 128.385 679.919 128.121 677.532 128.556C674.275 129.149 671.036 129.796 667.782 130.404C665.506 130.827 664.763 130.42 664.921 128.537C665.053 126.962 665.415 125.371 665.994 123.869C666.273 123.147 667.162 122.443 667.997 122.03C669.747 121.163 671.658 120.513 673.477 119.735C675.454 118.892 675.595 118.443 674.892 116.763C673.799 114.146 672.754 111.518 671.759 108.875C671.099 107.123 670.175 106.49 667.991 106.845C666.089 107.153 664.247 107.712 662.379 108.158C660.043 108.714 657.642 109.142 655.381 109.857C652.362 110.815 649.404 111.915 646.518 113.111C644.724 113.852 642.954 113.91 641.097 113.609C639.869 113.408 639.281 112.672 639.109 111.698C638.644 109.086 640.538 105.842 643.559 104.87C647.895 103.476 652.325 102.256 656.79 101.162C660.02 100.37 663.383 99.9404 666.654 99.2535C667.05 99.1717 667.581 98.4334 667.492 98.0969C667.13 96.7324 666.571 95.4029 666.052 94.0664C664.984 91.3233 663.825 88.6013 662.841 85.8372C662.227 84.1082 664.095 80.3464 665.885 79.316C667.067 78.6337 668.637 78.8347 669.371 79.8604C669.919 80.6268 670.401 81.4562 670.706 82.3044C671.827 85.4423 672.84 88.606 673.936 91.7509C674.484 93.3211 675.119 94.8702 675.724 96.4286C676.114 97.4333 676.898 97.917 678.263 97.9497C682.932 98.0665 687.603 98.174 692.26 98.4591C694.908 98.6203 697.542 99.0595 700.159 99.4708C704.299 100.123 708.041 104.859 707.883 107.635C707.803 109.041 707.3 110.24 706.038 111.181C703.616 112.987 701.154 114.759 698.721 116.553C698.489 116.726 698.322 116.957 697.858 117.439V117.443ZM697.399 125.707C694.506 126.002 692.526 126.214 690.541 126.399C688.937 126.549 688.131 127.418 688.604 128.668C689.218 130.294 689.936 131.895 690.595 133.511C692.736 138.745 695.037 143.946 695.238 149.552C695.275 150.57 695.941 150.806 697.034 150.664C699.149 150.39 701.292 150.22 703.381 149.855C710.893 148.547 718.419 147.287 725.873 145.787C730.734 144.808 735.508 143.521 740.271 142.241C746.277 140.626 751.984 138.451 757.384 135.761C759.057 134.927 759.082 134.259 757.826 133.07C756.104 131.441 753.812 130.74 751.384 130.233C746.676 129.25 741.996 128.137 737.233 127.371C733.603 126.787 729.867 126.623 726.172 126.329C722.149 126.007 718.12 125.565 714.089 125.507C708.233 125.422 702.368 125.637 697.399 125.712V125.707ZM686.088 105.49C686.065 105.609 686.039 105.728 686.016 105.847C684.49 105.847 682.96 105.821 681.434 105.854C679.623 105.891 679.144 106.508 679.747 107.889C680.596 109.829 681.457 111.763 682.249 113.716C682.871 115.247 683.422 115.546 685.152 114.733C689.115 112.868 693.014 110.908 696.896 108.936C697.344 108.709 697.886 108.046 697.763 107.763C697.591 107.364 696.882 106.938 696.328 106.854C692.925 106.347 689.499 105.934 686.082 105.49H686.088Z" fill="#070707"/>
<path d="M0.0191365 181.639C0.153993 177.648 1.45091 173.888 3.57418 170.318C7.97566 162.928 12.4374 155.563 16.8532 148.18C19.1085 144.406 21.2633 140.593 23.5587 136.836C25.3664 133.88 27.3548 130.999 29.1969 128.058C31.4751 124.42 33.5381 120.688 35.9598 117.118C39.4488 111.978 43.156 106.936 46.8143 101.872C49.5028 98.1504 52.243 94.454 54.9889 90.7623C56.917 88.1688 58.7505 85.5145 60.9082 83.0542C62.3716 81.3836 62.4863 79.8859 61.2726 78.2106C60.1622 76.6778 59.092 75.1194 57.884 73.6357C56.1768 71.5445 54.2974 69.5445 52.616 67.4393C51.9245 66.5747 51.5572 65.5373 51.0465 64.577C50.9891 64.4695 50.992 64.3387 50.9174 64.2452C49.3393 62.1961 47.7526 60.1517 46.1744 58.1025C45.6981 57.4857 45.2333 56.8642 44.7828 56.2357C44.6652 56.0698 44.6509 55.8572 44.539 55.6889C41.9279 51.7005 39.2824 47.7261 36.7115 43.7213C36.1205 42.7984 35.8364 41.7493 35.3199 40.7913C33.6873 37.7725 31.9514 34.7888 30.3704 31.7514C29.217 29.5363 28.2127 27.2699 27.2085 25.0058C24.8844 19.7767 22.5201 14.564 18.8646 9.82552C16.902 7.27872 18.0354 5.04268 19.8516 2.89542C20.7268 1.86035 22.3135 1.90007 23.3809 2.98888C24.1814 3.80432 24.9274 4.69454 25.4553 5.63849C28.2299 10.5919 31.2312 15.4822 33.5926 20.5688C38.2753 30.6415 43.9106 40.3474 50.1197 49.8243C53.9818 55.7216 58.5038 61.3316 62.7187 67.0748C63.8951 68.6776 65.0343 70.2991 66.1791 71.916C67.1518 73.2922 68.0413 73.4511 69.2062 72.1941C70.6121 70.6777 71.8201 69.0351 73.0223 67.4019C75.8228 63.598 78.6404 59.8035 81.3117 55.9389C83.3231 53.0276 85.1078 50.0159 87.0044 47.0508C88.9698 43.9783 91.0816 40.9666 92.8807 37.831C95.1617 33.8495 97.1616 29.763 99.3337 25.7395C103.064 18.8351 106.375 11.7508 111.881 5.58708C113.278 4.02162 114.822 2.52158 116.472 1.12902C118.11 -0.254198 119.734 -0.321957 121.005 0.682743C122.426 1.80427 122.48 3.75526 120.997 5.00062C116.658 8.64792 113.958 13.1153 111.425 17.6552C108.36 23.1436 105.428 28.6812 102.332 34.1603C99.9592 38.3613 97.5834 42.5741 94.9179 46.656C91.3312 52.1491 87.5352 57.5558 83.6961 62.9368C80.1468 67.9159 76.4311 72.8156 72.7727 77.7409C72.0267 78.7456 72.0353 79.7246 72.7297 80.7247C74.4455 83.1967 76.1843 85.6594 77.88 88.1408C79.9201 91.1315 81.9946 94.1082 83.9314 97.1433C88.0717 103.637 92.4101 110.06 96.1545 116.705C100.513 124.443 104.323 132.387 108.372 140.243C108.194 143.299 110.966 145.518 111.818 148.304C112.656 151.047 113.838 153.72 114.925 156.409C115.7 158.325 116.509 160.232 117.407 162.11C117.904 163.15 118.325 164.117 117.083 164.977C115.872 165.816 113.872 165.93 112.725 164.991C111.718 164.164 110.753 163.145 110.291 162.061C108.894 158.797 107.729 155.465 106.515 152.15C105.841 150.306 104.648 148.642 104.395 146.624C104.211 145.168 102.843 143.829 102.148 142.39C100.298 138.553 98.8545 134.563 96.6566 130.866C91.8735 122.817 86.7633 114.896 81.7048 106.957C79.329 103.228 76.784 99.571 74.2877 95.8956C72.9707 93.9563 71.6566 92.01 70.2047 90.1361C69.5276 89.2623 68.5463 88.538 67.6596 87.7786C66.8476 87.0847 66.0557 87.1945 65.39 87.9538C64.3341 89.1571 63.2037 90.3231 62.2654 91.5824C57.7606 97.6387 53.253 103.693 48.8572 109.803C46.3466 113.291 44.0081 116.866 41.6697 120.434C39.3771 123.929 37.0989 127.434 34.9613 130.995C30.9299 137.705 27.0478 144.474 23.0193 151.187C19.4098 157.203 15.5764 163.133 12.0615 169.185C9.98416 172.765 8.28268 176.491 6.52667 180.188C5.94134 181.424 6.24261 182.949 4.68172 183.858C4.21977 184.127 3.76355 184.44 3.24134 184.594C1.49682 185.115 0.185555 184.419 0.0220058 182.919C-0.0239028 182.494 0.0162672 182.064 0.0162672 181.634L0.0191365 181.639Z" fill="#070707"/>
<path d="M960.317 156.678C953.48 157.174 946.852 156.351 940.439 154.47C936.141 153.209 932.158 151.421 928.738 148.924C925.788 146.772 922.89 144.568 920.058 142.316C913.367 136.993 909.012 130.533 906.532 123.238C905.405 119.916 904.579 116.523 903.709 113.145C903.256 111.39 903.675 109.712 904.487 108.018C905.66 105.577 907.213 103.415 909.674 101.686C911.494 100.411 912.905 100.196 914.234 101.168C915.691 102.233 916.15 104.57 914.687 105.616C910.871 108.348 911.861 111.859 912.374 115.1C913.034 119.276 914.816 123.245 917.694 126.834C921.639 131.75 926.265 136.117 932.106 139.643C935.877 141.921 939.991 143.603 944.315 144.947C946.292 145.561 948.476 145.774 950.587 146.054C952.369 146.293 954.18 146.398 955.985 146.505C959.264 146.699 962.55 147.022 965.826 146.968C969.241 146.912 972.661 146.554 976.055 146.187C979.969 145.767 983.871 145.26 987.75 144.673C992.975 143.884 998.295 143.192 1002.89 140.844C1007.64 138.412 1012.23 135.783 1013.43 130.802C1014.12 127.914 1013.28 125.224 1011.99 122.607C1009.21 116.981 1004.25 113.086 997.744 110.165C992.625 107.866 987.317 106.065 981.734 104.862C977.054 103.852 972.305 102.864 967.373 103.039C963.135 103.191 958.891 103.284 954.665 103.553C952.98 103.661 951.233 103.971 949.695 104.52C945.165 106.137 939.902 106.343 935.92 108.918C933.131 110.722 930.695 112.897 928.19 114.976C927.754 115.339 927.679 116.044 927.584 116.607C927.424 117.556 926.899 118.14 925.745 118.472C924.916 118.71 924.187 119.189 923.435 119.586C922.182 120.248 920.842 119.878 920.942 118.776C921.117 116.855 921.358 114.902 921.969 113.051C922.775 110.607 924.615 108.731 927.051 107.025C930.462 104.635 934.187 102.726 938.103 101.02C940.175 100.116 942.373 99.567 944.812 99.5554C946.249 99.5484 947.692 99.0647 949.121 98.7516C953.296 97.8357 957.52 97.3614 961.861 97.4525C966.495 97.5483 971.134 97.4128 975.768 97.5109C977.751 97.553 979.762 97.7936 981.688 98.1838C984.267 98.7072 986.772 99.4736 989.32 100.109C989.813 100.233 990.353 100.231 990.872 100.291C991.438 100.357 992.149 100.27 992.545 100.518C994.723 101.89 997.595 101.901 999.842 102.974C1003.04 104.495 1006.11 106.233 1008.99 108.13C1011.99 110.105 1014.78 112.31 1017.5 114.539C1021.01 117.416 1022.77 120.969 1022.81 125.033C1022.84 128.213 1023.15 131.418 1021.66 134.496C1021.06 135.739 1020.28 136.788 1018.87 137.498C1018.42 137.72 1017.96 137.965 1017.63 138.285C1013.61 142.208 1008.01 144.353 1002.9 147.071C995.546 150.984 987.355 153.178 979.019 155.073C972.922 156.459 966.676 157.148 960.323 156.676L960.317 156.678Z" fill="#070707"/>
<path d="M813.986 126.782C813.605 128.163 813.22 129.541 812.839 130.922C811.9 134.303 811.1 137.759 808.506 140.609C806.239 143.1 803.014 144.348 799.204 144.638C793.505 145.068 789.075 143.138 785.147 139.965C780.852 136.495 777.612 132.469 774.74 128.17C771.53 123.361 768.91 118.352 766.844 113.174C765.421 109.604 764.635 105.865 763.51 102.214C763.346 101.678 762.993 101.111 762.52 100.728C761.544 99.9401 761.266 99.0429 762.101 98.2274C763.797 96.5685 765.564 94.9376 767.51 93.4773C768.566 92.6852 769.739 93.0474 770.494 94.0918C771.521 95.5171 772.299 96.9938 772.135 98.7228C771.845 101.774 772.91 104.674 773.885 107.555C776.367 114.873 779.713 121.938 785.15 128.144C788.134 131.548 791.744 134.661 796.974 135.948C797.827 136.158 798.765 136.264 799.651 136.224C802.303 136.109 803.531 135.364 804.09 133.259C805.031 129.728 805.8 126.167 806.609 122.614C807.025 120.784 807.903 118.887 807.625 117.12C807.132 114.029 808.543 111.158 808.489 108.13C808.452 106.078 810.813 104.945 812.77 103.905C813.519 103.508 814.193 103.842 814.557 104.571C815.679 106.814 816.589 109.05 816.379 111.56C816.299 112.518 816.864 113.655 817.547 114.487C821.513 119.328 824.009 124.731 826.531 130.1C828.574 134.448 830.118 138.951 831.905 143.378C832.172 144.039 832.565 144.67 832.904 145.313C833.739 146.89 833.305 148.056 831.469 149.166C830.092 149.998 827.765 149.958 826.514 149.096C824.956 148.021 823.819 146.773 823.2 145.121C821.802 141.404 820.287 137.712 818.635 134.065C817.579 131.735 816.19 129.504 814.936 127.233C814.847 127.069 814.649 126.948 814.503 126.805C814.334 126.801 814.164 126.796 813.995 126.791L813.986 126.782Z" fill="#070707"/>
<path d="M825.179 93.4781C825.156 91.5551 827.719 88.7794 829.779 88.3167C830.912 88.062 831.916 88.2747 832.519 89.1205C833.064 89.8892 833.578 90.7023 833.891 91.5505C835.764 96.6113 837.437 101.726 839.46 106.747C840.843 110.177 842.659 113.495 844.338 116.843C845.055 118.273 846.673 118.818 848.372 118.911C850.065 119.004 851.786 118.79 853.494 118.696C854.349 118.649 855.204 118.586 856.053 118.509C860.354 118.114 864.649 117.649 868.962 117.334C871.326 117.161 873.731 117.121 876.095 117.259C877.036 117.313 878.055 117.89 878.801 118.441C880.516 119.708 879.988 121.439 877.828 122.105C876.712 122.449 875.662 122.967 874.52 123.201C872.546 123.603 870.52 123.839 868.517 124.154C862.764 125.063 857.011 125.986 851.255 126.888C850.182 127.056 850.093 127.608 850.4 128.276C851.422 130.498 852.633 132.668 853.488 134.932C854.615 137.921 855.476 140.977 856.449 144.005C856.581 144.416 856.684 144.835 856.833 145.241C856.914 145.463 857.089 145.662 857.172 145.884C857.729 147.335 856.618 147.811 853.479 149.342C852.24 149.947 851.204 149.676 850.484 148.582C849.861 147.638 849.439 146.606 848.986 145.594C847.617 142.526 846.412 139.407 844.897 136.388C841.953 130.523 838.743 124.748 835.83 118.871C833.403 113.969 831.153 109.004 828.998 104.016C827.624 100.831 826.562 97.5576 825.372 94.3216C825.248 93.9898 825.211 93.637 825.177 93.4828L825.179 93.4781Z" fill="#070707"/>
<path d="M904.285 147.614C903.872 148.184 903.574 149.151 902.928 149.34C902.268 149.534 901.1 149.137 900.455 148.702C898.286 147.245 896.226 145.679 894.18 144.104C893.643 143.691 892.963 143.114 892.94 142.595C892.828 140.158 890.671 138.431 889.841 136.247C888.237 132.015 886.444 127.83 884.829 123.604C883.664 120.557 882.522 117.498 881.621 114.398C880.568 110.772 879.819 107.089 878.886 103.44C878.287 101.084 877.762 98.7058 876.901 96.4113C875.828 93.5444 877.544 89.8177 880.84 88.4765C882.166 87.9368 883.687 88.313 884.413 89.6074C885.018 90.6869 885.362 91.8878 885.632 93.0654C886.37 96.2735 886.92 99.5095 887.701 102.708C888.803 107.208 890.031 111.687 891.23 116.171C892.249 119.968 893.087 123.809 894.406 127.538C895.815 131.515 897.554 135.424 899.431 139.275C900.418 141.303 902.05 143.121 903.29 145.074C903.737 145.779 903.901 146.607 904.283 147.616L904.285 147.614Z" fill="black"/>
</svg>
